# xmcd CD database file
#
# Track frame offsets:
#	150
#	17040
#	34950
#	56757
#	68537
#	89147
#	104792
#	121830
#	137570
#	160550
#	177620
#	199020
#	215750
#
# Disc length: 3292 seconds
#
# Revision: 0
# Processed by: cddbd v1.5.1PL0 Copyright (c) Steve Scherf et al.
# Submitted via: CDex 1.51
#
DISCID=c00cda0d
DTITLE=THE HAUNTED - Revolver
DYEAR=2004
DGENRE=Heavy Metal
TTITLE0=No Compromise
TTITLE1=99
TTITLE2=Abysmal
TTITLE3=Sabotage
TTITLE4=All Against All
TTITLE5=Aweet Relief
TTITLE6=Burnt To A Shell
TTITLE7=Who Will Decide
TTITLE8=Out Of Reach
TTITLE9=Nothing Right
TTITLE10=Liquid Burns
TTITLE11=Fire Alive
TTITLE12=My Shadow
EXTD=YEAR: 2004
EXTT0=
EXTT1=
EXTT2=
EXTT3=
EXTT4=
EXTT5=
EXTT6=
EXTT7=
EXTT8=
EXTT9=
EXTT10=
EXTT11=
EXTT12=
PLAYORDER=
